<?xml version="1.0" standalone="no"?>
<!DOCTYPE svg PUBLIC "-//W3C//DTD SVG 20010904//EN"
 "http://www.w3.org/TR/2001/REC-SVG-20010904/DTD/svg10.dtd">
<svg version="1.0" xmlns="http://www.w3.org/2000/svg"
 width="3377.000000pt" height="3377.000000pt" viewBox="0 0 3377.000000 3377.000000"
 preserveAspectRatio="xMidYMid meet">
<metadata>
Created by potrace 1.11, written by Peter Selinger 2001-2013
</metadata>
<g transform="translate(0.000000,3377.000000) scale(0.100000,-0.100000)"
fill="#000000" stroke="none">
<path d="M0 16885 l0 -16885 16885 0 16885 0 0 16885 0 16885 -16885 0 -16885
0 0 -16885z m13205 -2735 c88 -1 189 -1 223 0 35 0 69 -4 77 -10 7 -6 20 -8
29 -4 9 3 23 1 31 -6 9 -7 18 -10 22 -7 3 4 12 2 20 -4 7 -6 13 -9 13 -6 0 3
15 1 33 -4 17 -5 50 -12 71 -15 22 -4 46 -12 53 -20 8 -7 20 -11 28 -8 8 4 15
1 15 -6 0 -6 5 -8 11 -4 6 3 14 2 18 -4 4 -6 27 -14 51 -17 24 -3 46 -9 50
-14 5 -9 75 -34 100 -36 9 0 21 -4 28 -9 7 -4 12 -2 12 6 0 7 12 0 26 -16 14
-15 28 -26 31 -22 4 3 15 -1 25 -11 10 -9 18 -13 18 -9 0 3 12 -1 27 -11 14
-10 38 -19 52 -21 14 -2 28 -7 29 -13 2 -5 8 -7 12 -4 5 3 18 -3 29 -14 21
-21 54 -41 68 -41 4 0 1 5 -7 10 -8 5 -10 10 -5 10 17 0 56 -31 50 -40 -3 -4
4 -6 16 -3 12 3 24 2 28 -3 10 -14 49 -34 66 -34 9 0 14 -4 10 -9 -3 -5 3 -12
14 -16 11 -3 22 -12 25 -20 3 -8 12 -15 21 -15 8 0 15 -4 15 -9 0 -5 14 -12
30 -16 17 -4 30 -11 30 -17 0 -6 7 -8 15 -4 8 3 15 1 15 -4 0 -6 11 -10 25
-10 14 0 28 -7 31 -15 4 -8 10 -13 14 -10 5 3 15 -1 23 -9 8 -8 17 -12 21 -9
3 4 6 1 6 -6 0 -7 4 -10 9 -7 5 3 16 -6 26 -20 12 -19 23 -25 41 -21 15 2 24
0 24 -8 0 -7 13 -15 29 -18 16 -4 38 -14 48 -25 25 -25 70 -43 90 -35 10 4 14
2 10 -4 -4 -5 5 -15 18 -21 14 -7 25 -16 25 -22 0 -5 6 -10 13 -10 8 0 24 -11
36 -24 12 -13 42 -31 66 -41 30 -11 42 -21 38 -31 -3 -8 1 -14 10 -14 8 0 20
-7 27 -15 7 -8 17 -12 22 -9 6 4 8 -2 3 -15 -3 -12 -3 -21 2 -20 19 3 36 -2
29 -8 -4 -4 10 -12 31 -18 26 -8 38 -17 37 -28 -1 -9 5 -17 13 -17 8 0 12 -4
9 -9 -3 -5 1 -14 9 -21 12 -10 15 -10 15 0 0 10 3 10 15 0 8 -7 14 -20 13 -29
-2 -10 3 -15 14 -13 14 2 17 -3 14 -28 -2 -16 1 -30 5 -30 5 0 9 8 9 18 1 15
3 14 19 -5 10 -12 21 -19 25 -16 3 4 6 1 6 -6 0 -6 14 -25 30 -41 17 -16 30
-34 30 -39 0 -5 18 -29 39 -53 27 -29 36 -45 28 -50 -8 -5 -6 -8 6 -8 15 0 22
-11 18 -33 -1 -4 6 -10 14 -13 8 -4 15 -14 15 -24 0 -19 43 -70 59 -70 6 0 8
-7 5 -15 -4 -8 -1 -15 6 -15 7 0 10 -7 6 -15 -3 -9 0 -15 9 -15 8 0 17 -11 21
-25 3 -14 10 -22 15 -19 5 3 9 -4 9 -16 0 -11 6 -23 14 -26 8 -3 12 -13 9 -25
-4 -13 0 -19 11 -19 9 0 15 -3 14 -7 -1 -5 3 -18 10 -30 7 -13 10 -23 6 -23
-3 0 -1 -7 6 -15 7 -8 9 -15 4 -15 -4 0 2 -10 14 -23 12 -13 20 -26 16 -29 -3
-4 4 -12 16 -18 12 -6 19 -14 16 -17 -2 -3 4 -15 15 -26 11 -12 18 -28 17 -37
-1 -8 12 -36 30 -62 35 -50 41 -68 17 -48 -23 19 -19 -6 4 -29 11 -11 19 -25
18 -33 -2 -46 4 -78 15 -75 7 1 13 -5 14 -13 3 -37 5 -41 14 -35 6 3 7 -1 4
-9 -3 -9 -3 -24 1 -33 5 -10 7 -26 6 -35 -1 -10 3 -18 8 -18 6 0 11 -7 11 -15
0 -8 4 -15 10 -15 5 0 7 -6 4 -14 -3 -7 2 -16 11 -20 9 -3 13 -11 10 -16 -4
-6 -1 -18 6 -26 6 -8 9 -17 5 -21 -3 -3 -6 -1 -6 6 0 7 -5 9 -11 5 -8 -4 -3
-12 12 -20 19 -10 20 -13 7 -14 -24 0 -23 -17 2 -25 11 -4 17 -11 14 -17 -4
-6 -10 -5 -15 3 -5 8 -9 9 -9 4 0 -6 6 -20 14 -31 15 -20 22 -54 31 -133 2
-24 9 -49 14 -54 7 -7 5 -15 -7 -23 -16 -13 -16 -13 1 -14 9 0 17 -5 17 -11 0
-5 -4 -7 -10 -4 -16 10 -12 -9 13 -56 15 -28 22 -58 21 -81 -2 -22 3 -41 11
-48 8 -6 11 -18 8 -26 -3 -8 0 -14 6 -14 6 0 11 -7 11 -15 0 -8 -5 -15 -11
-15 -5 0 -7 -5 -3 -11 4 -7 8 -28 9 -48 1 -20 6 -61 10 -91 4 -30 8 -63 8 -72
1 -10 7 -18 14 -18 7 0 13 -4 13 -10 0 -5 -8 -10 -17 -10 -15 0 -15 -2 -4 -9
15 -10 19 -23 23 -76 1 -16 6 -33 11 -36 5 -3 3 -12 -5 -20 -17 -18 -21 -59
-5 -59 9 0 9 -2 -1 -9 -16 -10 -24 -79 -10 -87 7 -4 6 -9 -1 -14 -8 -4 -9 -14
-2 -31 6 -16 5 -31 -1 -43 -6 -12 -6 -22 2 -31 10 -12 9 -16 -3 -21 -9 -3 -13
-12 -10 -20 3 -8 0 -14 -5 -14 -7 0 -9 -14 -7 -32 12 -102 9 -142 -10 -134 -8
3 -15 1 -15 -4 0 -6 6 -10 13 -10 14 0 14 -10 -1 -107 -6 -36 -5 -53 2 -53 6
0 3 -7 -8 -15 -10 -7 -15 -18 -12 -24 4 -5 2 -13 -4 -16 -6 -4 -8 -16 -4 -28
3 -12 3 -19 -1 -15 -8 8 -35 -15 -35 -30 0 -6 -6 -12 -12 -15 -10 -3 -10 -7 1
-20 12 -15 11 -17 -3 -17 -19 0 -22 -16 -3 -23 9 -3 9 -7 -1 -19 -7 -9 -9 -24
-5 -33 5 -14 3 -16 -7 -10 -10 6 -11 2 -6 -19 5 -20 3 -26 -10 -26 -12 0 -15
-6 -10 -25 4 -14 3 -25 -2 -25 -9 0 -29 -50 -36 -95 -3 -16 -12 -35 -21 -41
-8 -6 -15 -17 -15 -23 0 -7 -4 -9 -10 -6 -5 3 -7 0 -4 -8 3 -8 -2 -17 -11 -21
-10 -3 -15 -12 -11 -21 3 -8 1 -17 -5 -20 -5 -4 -7 -11 -4 -16 4 -5 2 -9 -4
-9 -9 0 -22 -27 -27 -59 -2 -8 -8 -17 -14 -21 -6 -4 -10 -13 -8 -20 2 -8 -4
-14 -12 -15 -8 0 -15 -7 -15 -15 0 -8 -8 -25 -19 -37 -10 -12 -24 -31 -30 -41
-58 -103 -84 -156 -80 -164 3 -5 2 -7 -3 -6 -14 5 -55 -30 -49 -41 4 -6 -7
-26 -23 -43 -17 -18 -31 -38 -31 -43 0 -6 -17 -26 -37 -45 -20 -19 -54 -62
-75 -95 -20 -33 -44 -67 -51 -75 -8 -8 -20 -26 -27 -40 -7 -14 -19 -28 -25
-32 -7 -4 -16 -23 -19 -42 -4 -18 -19 -46 -33 -62 -15 -16 -26 -35 -25 -41 2
-7 -4 -13 -12 -13 -8 0 -17 -9 -21 -19 -3 -10 -21 -29 -40 -42 -19 -13 -35
-30 -35 -36 0 -7 -4 -13 -10 -13 -5 0 -6 -7 -3 -17 4 -10 2 -14 -4 -10 -12 8
-23 -14 -23 -44 0 -10 -4 -19 -10 -19 -5 0 -10 -7 -10 -15 0 -8 -6 -12 -13
-10 -6 3 -17 -5 -22 -17 -6 -13 -20 -27 -32 -33 -13 -5 -23 -13 -23 -17 0 -5
-6 -8 -12 -8 -7 0 -28 -14 -47 -30 -18 -17 -38 -30 -43 -30 -5 0 -20 -12 -34
-27 -13 -14 -27 -23 -31 -20 -6 7 -53 -42 -53 -55 0 -5 -4 -7 -8 -5 -4 1 -20
-10 -35 -25 -16 -16 -33 -28 -40 -28 -7 0 -19 -9 -26 -19 -8 -11 -20 -17 -28
-14 -17 6 -42 -24 -43 -51 0 -15 -3 -16 -15 -6 -13 10 -15 9 -15 -9 0 -20 -3
-23 -32 -25 -7 -1 -23 -11 -35 -23 -12 -12 -33 -25 -45 -29 -13 -4 -40 -18
-60 -30 -21 -13 -47 -24 -58 -24 -11 0 -20 -4 -20 -10 0 -5 -15 -12 -34 -15
-19 -4 -43 -14 -53 -23 -31 -28 -82 -54 -93 -47 -6 3 -10 0 -10 -7 0 -10 -2
-10 -8 -1 -6 9 -12 8 -25 -7 -9 -10 -42 -27 -74 -36 -32 -9 -62 -19 -68 -22
-5 -4 -26 -8 -45 -9 -67 -6 -74 -8 -93 -26 -10 -10 -25 -16 -33 -13 -8 3 -14
1 -14 -3 0 -5 -9 -7 -21 -4 -11 3 -31 0 -44 -7 -13 -7 -31 -10 -39 -7 -9 4
-16 1 -16 -5 0 -7 -16 -8 -49 -4 -27 4 -52 2 -55 -3 -3 -5 -21 -6 -41 -1 -19
4 -37 5 -40 0 -2 -4 -30 -10 -62 -14 -84 -11 -87 -11 -101 -20 -6 -4 -17 -4
-22 -1 -6 4 -17 1 -25 -5 -8 -7 -22 -10 -30 -6 -9 3 -14 2 -11 -3 3 -5 -6 -9
-19 -8 -14 0 -25 4 -25 9 0 5 -9 4 -20 -2 -11 -6 -25 -8 -30 -5 -5 3 -11 1
-15 -4 -3 -6 -15 -7 -28 -2 -28 10 -194 3 -279 -11 -16 -3 -28 -1 -28 5 0 5
-7 3 -17 -4 -17 -15 -65 -20 -57 -7 7 11 -4 10 -27 -3 -15 -8 -24 -7 -37 3
-13 11 -14 11 -7 -1 6 -11 4 -13 -11 -7 -37 16 -57 19 -51 9 7 -12 -139 -11
-166 1 -10 5 -31 6 -47 2 -23 -4 -30 -2 -30 10 0 13 -3 14 -15 4 -8 -6 -19 -9
-25 -5 -7 4 -33 8 -58 9 -26 1 -52 5 -59 9 -7 4 -32 6 -57 3 -26 -2 -46 -1
-46 3 0 3 -26 6 -57 6 -33 -1 -68 5 -80 13 -12 8 -27 11 -34 7 -6 -4 -15 -2
-19 4 -4 7 -26 12 -48 13 -23 0 -40 4 -37 8 3 4 -1 8 -8 7 -6 0 -28 1 -47 2
-26 1 -31 4 -20 11 8 5 11 12 7 16 -3 4 -13 1 -22 -6 -12 -10 -18 -10 -30 0
-8 6 -19 9 -25 5 -5 -3 -10 -2 -10 3 0 4 -15 7 -34 6 -21 -2 -39 3 -46 11 -7
8 -20 15 -30 15 -10 0 -21 7 -24 16 -4 12 -15 15 -36 12 -17 -3 -30 0 -30 5 0
5 -7 7 -15 3 -8 -3 -15 0 -15 5 0 7 -9 9 -21 6 -13 -4 -28 1 -38 10 -15 15
-16 15 -19 -1 -3 -13 -7 -14 -17 -6 -10 8 -19 8 -34 1 -11 -6 -31 -11 -45 -11
-13 0 -31 -6 -38 -13 -7 -8 -19 -12 -26 -9 -6 2 -12 -1 -12 -6 0 -8 -13 -15
-50 -26 -3 -1 -9 -4 -15 -7 -5 -3 -29 -11 -52 -19 -24 -7 -43 -17 -43 -22 0
-9 -50 -32 -64 -29 -4 1 -14 -3 -20 -8 -7 -6 -28 -12 -47 -13 -19 -2 -36 -5
-39 -8 -3 -3 -19 -10 -37 -16 -24 -9 -33 -9 -37 0 -3 7 -8 6 -15 -4 -10 -15
-14 -16 -46 -19 -8 0 -15 -5 -15 -11 0 -5 8 -7 18 -4 15 5 15 4 -1 -6 -10 -7
-21 -9 -24 -6 -4 3 -12 1 -18 -4 -7 -6 -27 -12 -44 -13 -17 -1 -31 -5 -31 -8
0 -4 -29 -10 -65 -14 -36 -3 -65 -11 -65 -17 0 -6 -13 -7 -31 -3 -17 4 -29 3
-26 -1 3 -5 -23 -10 -56 -10 -72 -2 -173 -12 -236 -24 -25 -4 -50 -6 -58 -3
-7 3 -13 0 -13 -6 0 -7 -13 -9 -39 -5 -24 4 -41 2 -45 -5 -10 -15 -43 -14 -50
2 -5 9 -7 9 -12 0 -3 -7 -20 -10 -46 -7 -22 3 -45 1 -52 -5 -13 -11 -117 -8
-136 4 -19 12 -101 7 -124 -8 -11 -7 -50 -14 -86 -16 -36 -2 -70 -7 -76 -12
-6 -5 -14 -6 -17 -3 -3 4 -20 2 -36 -4 -17 -6 -31 -7 -31 -3 0 5 -11 6 -25 3
-14 -2 -25 0 -25 6 0 7 -10 6 -26 -3 -18 -9 -34 -11 -50 -5 -13 5 -36 5 -54 0
-18 -5 -41 -5 -55 0 -13 5 -32 9 -42 8 -21 0 -115 10 -158 17 -16 3 -48 8 -70
10 -22 3 -56 8 -75 12 -19 3 -44 8 -54 10 -11 2 -25 8 -32 14 -7 6 -21 8 -31
5 -10 -3 -30 0 -45 8 -19 10 -29 11 -37 3 -8 -8 -11 -6 -11 6 0 9 -4 17 -10
17 -5 0 -10 -5 -10 -11 0 -6 -7 -3 -16 5 -8 9 -26 16 -38 16 -20 0 -62 11
-106 27 -8 4 -21 5 -27 4 -7 -1 -13 3 -13 9 0 6 -5 8 -11 5 -13 -9 -70 15 -63
26 3 5 -1 6 -9 3 -9 -3 -21 4 -29 15 -8 12 -18 18 -21 15 -4 -4 -14 -1 -23 7
-10 8 -20 12 -23 11 -33 -19 -40 -20 -51 -7 -6 8 -27 19 -45 25 -18 6 -36 17
-39 25 -3 8 -13 15 -23 15 -10 0 -33 14 -50 30 -18 17 -35 31 -38 31 -12 0
-41 14 -53 26 -7 7 -20 13 -28 13 -8 0 -14 6 -14 14 0 8 -9 18 -20 21 -11 3
-20 12 -20 20 0 8 -9 16 -19 20 -11 3 -22 13 -25 21 -3 8 -11 12 -17 9 -6 -4
-13 2 -16 14 -4 17 -8 19 -19 10 -11 -9 -14 -8 -14 6 0 11 -5 15 -14 12 -10
-4 -13 -1 -9 9 3 9 -1 14 -15 14 -12 0 -22 9 -25 21 -3 12 -10 18 -16 14 -6
-3 -11 2 -11 13 0 11 -11 27 -25 36 -14 9 -25 23 -25 31 0 8 -6 15 -14 15 -8
0 -24 12 -35 26 -11 14 -25 23 -30 20 -5 -4 -16 2 -23 11 -7 10 -22 23 -32 28
-10 6 -17 13 -15 16 2 2 -6 15 -18 29 -13 13 -23 30 -23 37 0 8 -4 11 -10 8
-5 -3 -10 -2 -10 4 0 18 -95 123 -104 114 -3 -4 -6 2 -6 12 0 10 -3 15 -6 12
-7 -7 -53 41 -55 58 -1 6 -4 21 -6 35 -2 14 -4 35 -5 48 0 23 -12 29 -23 11
-5 -6 -13 -2 -22 11 -12 17 -17 19 -24 9 -6 -10 -9 -11 -9 -1 0 6 -9 12 -19
12 -11 0 -21 4 -23 9 -1 5 -10 11 -18 13 -19 4 -39 37 -40 64 0 12 -14 31 -30
44 -17 13 -29 29 -26 36 2 6 -13 30 -35 54 -21 23 -39 46 -39 51 0 5 -6 9 -12
9 -18 1 -42 37 -59 85 -7 22 -18 47 -25 55 -6 8 -15 25 -19 38 -3 12 -11 20
-16 17 -5 -4 -9 -1 -9 5 0 7 -10 26 -22 43 -13 18 -23 34 -24 37 -6 35 -46 94
-57 84 -3 -3 -3 3 0 15 4 15 1 21 -12 21 -11 0 -15 5 -12 14 3 8 -3 22 -14 32
-10 9 -19 26 -19 36 0 10 -11 31 -25 46 -14 15 -23 33 -20 40 2 7 -2 15 -10
18 -8 4 -15 19 -15 34 0 16 -5 30 -11 32 -6 2 -11 16 -11 31 0 15 -4 27 -8 27
-5 0 -11 14 -15 30 -4 17 -11 30 -15 30 -5 0 -6 7 -3 17 4 11 3 14 -5 9 -8 -5
-12 2 -12 23 0 16 -4 32 -9 36 -6 3 -10 13 -10 23 0 19 -26 141 -39 187 -5 17
-7 36 -4 43 6 19 -19 132 -29 132 -7 0 -7 70 0 95 7 21 0 80 -7 68 -4 -7 -7 9
-7 35 0 26 -3 50 -8 53 -9 7 -10 217 -1 309 3 36 6 72 7 80 0 8 7 20 16 27 11
8 12 12 4 13 -16 0 -17 40 -2 40 5 0 7 6 2 12 -10 17 -11 88 -1 82 8 -5 12 18
9 45 -2 7 2 10 8 6 13 -8 13 -8 1 34 -5 19 -6 39 -1 45 12 17 40 125 45 176 2
25 9 57 15 73 6 15 8 27 4 27 -3 0 2 9 12 20 14 15 19 38 19 88 1 37 5 73 9
80 5 7 10 34 12 60 3 26 16 81 30 122 14 41 31 93 36 115 6 22 14 49 19 60 17
42 33 111 31 129 -2 11 2 16 8 12 6 -4 12 -2 12 3 2 16 4 23 17 54 7 16 10 33
7 37 -3 5 0 12 7 17 7 4 13 13 14 18 1 24 17 65 25 65 5 0 6 7 2 16 -3 9 -2
19 3 23 5 3 15 19 22 35 12 28 12 29 -5 16 -10 -7 -1 4 19 24 21 20 32 36 25
37 -6 0 -1 5 12 10 15 6 21 15 17 24 -3 8 -1 15 4 15 6 0 10 9 10 20 0 11 4
20 9 20 5 0 12 13 16 29 3 15 15 38 26 50 11 12 18 25 15 30 -3 5 5 16 19 25
14 9 25 21 25 27 0 6 7 17 15 26 8 8 13 19 10 24 -4 5 1 9 9 9 10 0 13 6 10
15 -5 11 -2 13 12 8 12 -4 15 -3 10 5 -9 16 11 52 29 52 8 0 15 7 15 16 0 9
24 38 53 66 28 27 51 54 49 60 -2 6 4 8 13 4 9 -3 13 -2 10 4 -7 12 34 60 52
60 7 0 12 4 10 8 -1 4 10 20 25 34 15 14 25 28 21 31 -3 4 3 10 13 14 10 4 31
18 46 32 49 46 68 61 68 55 0 -3 7 2 16 10 8 9 21 16 29 16 7 0 16 7 19 16 4
9 13 14 21 10 10 -3 15 1 15 11 0 9 3 14 6 10 4 -3 21 9 38 28 18 18 59 48 91
66 33 17 74 42 92 55 17 13 35 24 38 24 4 0 27 15 53 32 26 18 49 33 52 33 3
1 19 9 37 18 18 9 38 17 46 17 8 0 24 9 37 20 26 23 35 26 24 8 -4 -6 14 5 41
25 26 20 51 35 55 32 4 -3 13 2 20 10 7 8 21 15 31 15 11 0 19 4 19 10 0 5 10
9 23 7 12 -1 21 3 20 9 -1 7 3 11 10 11 13 -1 91 19 122 32 71 30 158 77 162
89 3 7 11 11 18 8 7 -2 16 -2 19 2 8 7 32 13 73 17 17 2 49 12 70 22 78 40
150 71 213 93 36 12 79 28 96 36 17 7 42 16 55 18 13 3 24 5 24 6 0 3 158 30
196 34 20 2 42 6 48 11 7 4 14 5 17 2 2 -2 30 2 62 11 31 8 111 16 177 18 66
2 149 5 185 7 128 9 166 8 205 -4 22 -6 56 -12 75 -13 19 0 37 -4 40 -8 5 -6
50 -14 123 -21 9 -1 17 -5 17 -10 0 -5 6 -7 13 -4 7 3 29 -2 48 -10 18 -8 50
-17 69 -19 20 -2 58 -15 85 -28 26 -14 52 -23 57 -20 5 3 17 2 26 -2 9 -4 22
-8 27 -9 43 -8 75 -19 75 -27 0 -5 10 -6 21 -3 12 4 24 3 28 -1 3 -5 16 -18
29 -28 23 -20 23 -20 17 0 -4 14 -2 13 6 -3 7 -13 19 -23 28 -23 9 0 29 -7 44
-15 16 -8 43 -16 60 -17 18 -1 35 -6 38 -11 4 -5 23 -11 43 -12 20 -1 44 -9
54 -17 21 -18 92 -24 92 -8 0 7 8 9 19 5 13 -4 23 0 30 12 6 10 11 15 11 10 0
-4 16 0 36 8 20 8 45 15 56 15 10 0 16 4 13 10 -3 6 1 7 10 4 8 -4 22 -1 30 6
8 7 22 10 30 6 8 -3 15 -1 15 5 0 8 33 26 60 34 34 9 110 53 110 64 0 8 3 11
7 8 3 -4 12 -2 20 5 7 6 16 8 20 4 3 -3 15 2 26 11 11 10 17 12 13 5 -11 -19
25 0 44 22 7 9 18 16 24 16 7 0 17 5 24 12 6 6 22 13 34 15 12 2 31 9 43 16
11 8 40 14 65 16 24 1 52 9 61 17 8 7 21 14 28 14 7 0 32 11 57 25 25 14 51
25 59 25 8 0 15 5 15 10 0 6 3 9 8 9 22 -4 70 15 66 26 -4 8 3 11 22 9 15 -1
34 2 43 7 20 11 72 32 86 33 73 10 114 20 109 27 -3 5 2 6 11 3 8 -4 21 -2 28
3 6 5 26 8 42 8 17 -1 34 1 40 3 10 6 64 14 102 16 11 1 19 5 16 9 -2 4 11 7
31 5 20 -1 40 2 45 7 6 6 47 9 93 8 46 -1 155 -3 243 -3z"/>
<path d="M7730 8998 c0 -19 2 -20 10 -8 13 19 13 30 0 30 -5 0 -10 -10 -10
-22z"/>
<path d="M7763 8998 c4 -10 2 -18 -3 -18 -5 0 -7 -7 -3 -17 5 -14 8 -12 15 7
6 15 5 27 -3 34 -9 8 -10 7 -6 -6z"/>
<path d="M7866 8905 c-10 -7 -16 -18 -13 -22 3 -5 -2 -9 -11 -9 -9 -1 -26 -5
-36 -9 -14 -6 -17 -5 -12 4 6 10 4 10 -11 0 -22 -13 -20 -59 3 -59 9 0 11 -6
7 -17 -6 -15 -4 -16 9 -5 12 9 18 10 23 2 5 -8 14 -6 28 7 19 17 20 17 14 0
-6 -15 -4 -16 13 -7 11 6 25 8 30 5 16 -10 70 24 70 44 0 11 -12 33 -26 51
-22 26 -29 29 -42 18 -12 -10 -14 -10 -8 0 10 16 -14 15 -38 -3z"/>
<path d="M7585 8839 c-4 -12 -13 -18 -20 -15 -8 3 -19 -1 -25 -9 -9 -11 -6
-19 13 -39 14 -14 23 -26 22 -28 -2 -2 7 -4 20 -4 14 -1 27 6 33 20 22 46 22
58 1 77 -28 24 -36 24 -44 -2z"/>
<path d="M7647 8844 c8 -21 40 -37 40 -19 0 7 -11 18 -23 24 -19 8 -22 7 -17
-5z"/>
</g>
</svg>
